<svg width="36" height="37" viewBox="0 0 36 37" fill="none" xmlns="http://www.w3.org/2000/svg">
<path fill-rule="evenodd" clip-rule="evenodd" d="M12.627 5.37645C13.048 4.48888 13.9523 3.87512 15 3.87512H21C22.0477 3.87512 22.952 4.48888 23.373 5.37645C24.3983 5.38391 25.1974 5.43098 25.9107 5.70976C26.763 6.04287 27.5043 6.60912 28.0499 7.34375C28.6003 8.08488 28.8586 9.03481 29.2142 10.3423L30.3272 14.4242L30.7478 15.6862C30.7598 15.701 30.7716 15.7159 30.7834 15.7309C32.1346 17.4616 31.4912 20.0354 30.2042 25.1831C29.3857 28.4571 28.9765 30.0941 27.7558 31.0472C26.5351 32.0003 24.8477 32.0003 21.4729 32.0003H14.5269C11.1521 32.0003 9.46475 32.0003 8.24407 31.0472C7.0234 30.0941 6.61415 28.4571 5.79564 25.1831C4.50872 20.0354 3.86526 17.4616 5.2165 15.7309C5.22833 15.7158 5.24025 15.7008 5.25228 15.6859L5.67285 14.4242L6.78576 10.3423C7.14137 9.03482 7.39974 8.08488 7.95014 7.34375C8.49571 6.60912 9.23703 6.04287 10.0893 5.70976C10.8026 5.43098 11.6017 5.38391 12.627 5.37645ZM12.6293 7.62858C11.6364 7.63862 11.2381 7.67653 10.9084 7.80539C10.4494 7.98476 10.0503 8.28966 9.75649 8.68523C9.49233 9.04094 9.33732 9.53792 8.90097 11.1382L8.04663 14.2715C9.57677 14.0003 11.6663 14.0003 14.5269 14.0003H21.4729C24.3337 14.0003 26.4232 14.0003 27.9534 14.2715L27.099 11.1382C26.6627 9.53792 26.5077 9.04094 26.2435 8.68524C25.9497 8.28966 25.5506 7.98476 25.0916 7.80539C24.7619 7.67653 24.3636 7.63862 23.3707 7.62858C22.9487 8.51357 22.0458 9.12512 21 9.12512H15C13.9542 9.12512 13.0513 8.51357 12.6293 7.62858Z" fill="#0154C5"/>
</svg>
