<svg width="24" height="24" viewBox="0 0 24 24" fill="none" xmlns="http://www.w3.org/2000/svg">
<path fill-rule="evenodd" clip-rule="evenodd" d="M22 12.0002C22 17.5231 17.5228 22.0002 12 22.0002C6.47715 22.0002 2 17.5231 2 12.0002C2 6.4774 6.47715 2.00024 12 2.00024C17.5228 2.00024 22 6.4774 22 12.0002ZM5.46056 11.0836C5.83331 7.80012 8.62404 5.25024 12.0096 5.25024C14.148 5.25024 16.0489 6.26817 17.2521 7.8427C17.5036 8.17183 17.4406 8.64251 17.1115 8.89401C16.7824 9.1455 16.3117 9.08257 16.0602 8.75345C15.1289 7.53469 13.6613 6.75024 12.0096 6.75024C9.45213 6.75024 7.33639 8.63243 6.9733 11.0836H7.33652C7.63996 11.0836 7.9135 11.2664 8.02953 11.5468C8.14556 11.8272 8.0812 12.1499 7.86649 12.3643L6.69823 13.5309C6.40542 13.8233 5.9311 13.8233 5.63829 13.5309L4.47003 12.3643C4.25532 12.1499 4.19097 11.8272 4.30699 11.5468C4.42302 11.2664 4.69656 11.0836 5 11.0836H5.46056ZM18.3617 10.4696C18.0689 10.1771 17.5946 10.1771 17.3018 10.4696L16.1335 11.6362C15.9188 11.8506 15.8545 12.1733 15.9705 12.4537C16.0865 12.7341 16.3601 12.9169 16.6635 12.9169H17.0267C16.6636 15.3681 14.5479 17.2502 11.9905 17.2502C10.3464 17.2502 8.88484 16.4731 7.9529 15.2641C7.70002 14.936 7.22908 14.8751 6.90101 15.1279C6.57295 15.3808 6.512 15.8517 6.76487 16.1798C7.96886 17.7418 9.86205 18.7502 11.9905 18.7502C15.376 18.7502 18.1667 16.2004 18.5395 12.9169H19C19.3035 12.9169 19.577 12.7341 19.693 12.4537C19.8091 12.1733 19.7447 11.8506 19.53 11.6362L18.3617 10.4696Z" fill="#0373F3"/>
</svg>
