<svg width="24" height="24" viewBox="0 0 24 24" fill="none" xmlns="http://www.w3.org/2000/svg">
<path fill-rule="evenodd" clip-rule="evenodd" d="M2 6.00024C2 4.89568 2.89543 4.00024 4 4.00024H15C16.1046 4.00024 17 4.89567 17 6.00024V7.00024H18.5194C19.1269 7.00024 19.7016 7.27642 20.0811 7.75085L21.5617 9.60163C21.8454 9.95626 22 10.3969 22 10.851V15.0002C22 16.1048 21.1046 17.0002 20 17.0002H19C19 18.6571 17.6569 20.0002 16 20.0002C14.3431 20.0002 13 18.6571 13 17.0002H10C10 18.6571 8.65685 20.0002 7 20.0002C5.34315 20.0002 4 18.6571 4 17.0002C2.89543 17.0002 2 16.1048 2 15.0002V6.00024ZM17 13.0002V9.00024H18.5194L20 10.851V13.0002H17ZM8 17.0002C8 17.5525 7.55228 18.0002 7 18.0002C6.44772 18.0002 6 17.5525 6 17.0002C6 16.448 6.44772 16.0002 7 16.0002C7.55228 16.0002 8 16.448 8 17.0002ZM16 18.0002C16.5523 18.0002 17 17.5525 17 17.0002C17 16.448 16.5523 16.0002 16 16.0002C15.4477 16.0002 15 16.448 15 17.0002C15 17.5525 15.4477 18.0002 16 18.0002Z" fill="#0373F3"/>
</svg>
