<svg width="36" height="37" viewBox="0 0 36 37" fill="none" xmlns="http://www.w3.org/2000/svg">
<path fill-rule="evenodd" clip-rule="evenodd" d="M33 18.5001C33 26.7844 26.2843 33.5001 18 33.5001C9.71573 33.5001 3 26.7844 3 18.5001C3 10.2159 9.71573 3.50012 18 3.50012C26.2843 3.50012 33 10.2159 33 18.5001ZM22.5 14.0001C22.5 16.4854 20.4853 18.5001 18 18.5001C15.5147 18.5001 13.5 16.4854 13.5 14.0001C13.5 11.5148 15.5147 9.50012 18 9.50012C20.4853 9.50012 22.5 11.5148 22.5 14.0001ZM18 31.2501C20.6761 31.2501 23.1596 30.4257 25.2104 29.0169C26.1162 28.3947 26.5033 27.2095 25.9766 26.245C24.8849 24.2455 22.6353 23.0001 17.9999 23.0001C13.3645 23.0001 11.115 24.2455 10.0232 26.2449C9.49657 27.2094 9.88365 28.3946 10.7894 29.0168C12.8403 30.4256 15.3238 31.2501 18 31.2501Z" fill="#0154C5"/>
</svg>
